<?xml version="1.0"?><svg width="394.664" height="558.055" xmlns="http://www.w3.org/2000/svg" xmlns:xlink="http://www.w3.org/1999/xlink">
 <g>
  <title>Layer 1</title>
  <path id="svg_1" d="m159.912994,201.462997c46.575012,34.697006 81.758011,46.492996 113.893005,40.593002c32.135986,-5.895996 43.343994,-20.908005 51.145996,-43.533997c7.79599,-22.623001 -3.806,-55.900009 -3.806,-55.900009l3.64798,1.539993c0.02002,0.054001 8.407013,20.434006 8.07901,43.782013c-0.328003,23.455002 -13.368988,56.591003 -48.77301,68.401001c-29.502991,9.839996 -60.631989,-2.016006 -84.553986,-14.339005c-23.979004,-12.356995 -40.692001,-27.126999 -40.738007,-27.166992l1.105011,-13.376007" fill="#D1D3D4"/>
  <g id="svg_2">
   <defs>
    <path d="m159.912994,201.462997c46.575012,34.697006 81.758011,46.492996 113.893005,40.593002c32.135986,-5.895996 43.343994,-20.908005 51.145996,-43.533997c7.79599,-22.623001 -3.806,-55.900009 -3.806,-55.900009l3.64798,1.539993c0.02002,0.054001 8.407013,20.434006 8.07901,43.782013c-0.328003,23.455002 -13.368988,56.591003 -48.77301,68.401001c-29.502991,9.839996 -60.631989,-2.016006 -84.553986,-14.339005c-23.979004,-12.356995 -40.692001,-27.126999 -40.738007,-27.166992l1.105011,-13.376007" id="XMLID_1_"/>
    <symbol viewBox="0 0 158.156 176.947" height="176.947px" width="158.156px" y="0px" x="0px" id="svg_166" xmlns:xlink="http://www.w3.org/1999/xlink">
     <g>
      <path d="m79.129997,175.160995c4.252007,-5.73999 16.422005,-12.753998 22.373001,-15.51799c5.952003,-2.764999 26.784996,-10.20401 35.500008,-18.919006s12.700989,-15.943001 12.700989,-32.736c0,-12.543999 -4.144989,-24.803001 -5.261002,-41.770996c-1.552994,-23.586014 12.32901,-43.365013 12.32901,-43.365013l-21.78801,-21.78899l-55.905991,0l-55.907003,0l-21.788,21.788999c0,0 13.881,19.779001 12.329,43.365004c-1.117,16.967995 -4.783,24.763 -4.783,41.769997c0,16.792999 3.614,24.020996 12.329,32.736008c8.716002,8.715988 29.548,16.155991 35.5,18.918991c5.951,2.763 18.120998,9.778 22.371998,15.518997z" stroke-width="2.1258" stroke="#000000" fill="#FFFFFF"/>
      <path d="m79.125999,168.095001c3.917,-5.289001 15.982002,-10.902008 21.467003,-13.447998c5.485001,-2.546997 24.255997,-9.19101 32.287994,-17.222c8.029999,-8.031006 11.490997,-15.329002 11.278,-31.653999c-0.149002,-11.559006 -3.425995,-23.218002 -4.528,-38.811005c-1.751999,-24.766998 10.775009,-43.521 10.775009,-43.521l-17.473007,-17.234999l-54.014999,0.026l-53.271999,0l-17.5,17.447999c0,0 11.915001,19.102999 10.697001,43.601c-0.778,15.650002 -4.408,22.819 -4.408,38.490997c0,15.475006 2.054999,22.560005 10.085999,30.590996s28.502998,15.737015 33.987999,18.284012c5.486,2.547989 16.699001,8.160995 20.617001,13.449997z" fill="#FFFFFF"/>
      <path d="m79.125,165.272003c3.800003,-5.130005 15.501999,-10.574997 20.822998,-13.046005c5.32,-2.470001 23.104004,-8.701004 30.893997,-16.492004c7.790009,-7.789993 11.041,-14.549995 10.835007,-30.385994c-0.145996,-11.210999 -3.222,-22.847 -4.393997,-37.964996c-1.911011,-24.662003 9.772995,-43.640003 9.772995,-43.640003l-15.113007,-15.113l-52.86499,0l-52.247004,0l-15.447,15.447c0,0 10.554,17.514999 9.585,43.403004c-0.569,15.187996 -4.169001,22.559998 -4.169001,37.761993c0,15.011002 1.567001,21.458 9.358002,29.248009c7.791,7.791 27.647999,15.266998 32.968998,17.735992c5.319,2.470001 16.197998,7.916 19.998001,13.046005z" stroke-width="1.0629" stroke="#000000" fill="#FFFFFF"/>
      <g>
       <g>
        <g>
         <path d="m71.439003,49.619999c0,0 -15.785004,3.118999 -20.074001,-3.585999c0,0 -3.387001,-4.161999 0.225998,-5.318001s9.934002,-3.700001 9.934002,-3.700001s4.616997,-0.843998 10.375,2.695l26.030998,4.247002c0,0 12.670998,1.652 12.670998,10.854c0,6.841999 -8.753998,10.618 -11.287994,11.797001c-1.990005,0.926003 -23.268005,8.257996 -23.268005,8.257996s-1.151001,1.652 0,2.359001c1.152,0.708 24.649002,11.679001 24.649002,11.679001s8.292999,2.950005 8.292999,10.5c0,5.427002 -5.975998,7.675003 -7.256996,8.258003c-2.072006,0.944 -23.727005,5.426994 -23.727005,5.426994s-1.152,0.235001 0,0.943001c1.153,0.709 19.236,8.967003 19.236,8.967003s5.760002,2.596001 5.760002,8.259003c0,5.662994 -7.140999,7.078003 -7.140999,7.078003s-24.650002,2.360001 -33.865002,8.728989c0,0 5.298,-8.020996 28.335003,-14.627991c0,0 0.690994,-2.240997 -0.459999,-2.712997c-1.152,-0.472 -19.812004,-9.320007 -19.812004,-9.320007s-6.681,-1.651001 -6.681,-7.549995c0,-5.898003 7.026001,-7.786003 7.026001,-7.786003s19.914001,-4.115997 22,-6.252998c0.459999,-0.472 0.806,-0.354004 -0.230003,-1.297005c-1.102997,-1.003998 -24.879997,-12.976997 -24.879997,-12.976997s-8.292,-3.422997 -8.522999,-9.676003c-0.278,-7.544998 7.832996,-8.729996 7.832996,-8.729996l26.953003,-9.674c0,0 1.843002,-0.708 0.230003,-2.124001c-1.613007,-1.415001 -22.346001,-4.718002 -22.346001,-4.718002z" stroke-width="1.7007" stroke="#FFFFFF" fill="#FFFFFF"/>
        </g>
       </g>
       <g>
        <path d="m77.342003,85.494003" stroke-width="1.0944" stroke="#FFFFFF" fill="none"/>
        <path d="m79.147003,85.803001" stroke-width="1.0944" stroke="#FFFFFF" fill="none"/>
        <path d="m89.015999,21.669001l-0.229996,19.722998l-14.052002,-2.359997l-0.230003,-17.363001c0,0 0.585999,-7.079 5.885002,-7.079c-0.000999,0 6.553001,-1.651 8.626999,7.079z"/>
        <g>
         <path d="m82.915001,42.458" fill="none"/>
        </g>
        <g>
         <path d="m82.910004,42.566002" fill="none"/>
        </g>
        <g>
         <path d="m82.795998,42.569" stroke-width="3.6477" stroke="#000000" fill="none"/>
        </g>
        <g>
         <path d="m82.795998,42.334999" stroke-width="3.6477" stroke="#000000" fill="none"/>
        </g>
        <g>
         <path d="m83.035004,42.333" stroke-width="2.4318" stroke="#000000" fill="none"/>
        </g>
        <g>
         <path d="m83.137001,42.463001" stroke-width="3.6477" stroke="#000000" fill="none"/>
        </g>
        <g>
         <path d="m82.792,42.345001" stroke-width="2.4318" stroke="#000000" fill="none"/>
        </g>
        <path d="m83.141998,85.632004" stroke-width="1.2159" stroke="#000000" fill="none"/>
        <g>
         <g>
          <path d="m69.666,48.234001c0,0 -15.785,3.118999 -20.074001,-3.586002c0,0 -3.386997,-4.161999 0.226002,-5.317997c3.612,-1.156002 9.933998,-3.700001 9.933998,-3.700001s4.615997,-0.845001 10.375,2.695l26.030998,4.246998c0,0 12.671005,1.651001 12.671005,10.854c0,6.843002 -8.754005,10.618 -11.288002,11.797001c-1.988998,0.926003 -23.266998,8.258003 -23.266998,8.258003s-1.152,1.652 0,2.360001c1.152,0.708 24.650002,11.678993 24.650002,11.678993s8.292999,2.950005 8.292999,10.5c0,5.427002 -5.976006,7.675003 -7.257004,8.258003c-2.072998,0.944 -23.727997,5.427002 -23.727997,5.427002s-1.152,0.236 0,0.943001c1.151001,0.708 19.235001,8.965996 19.235001,8.965996s5.759995,2.596001 5.759995,8.257996c0,5.66301 -7.141998,7.07901 -7.141998,7.07901s-24.649002,2.358994 -33.863998,8.729996c0,0 5.297997,-8.022003 28.334999,-14.628006c0,0 0.691002,-2.240997 -0.459999,-2.712997c-1.152,-0.472 -19.812004,-9.32 -19.812004,-9.32s-6.680996,-1.650993 -6.680996,-7.549995s7.025997,-7.786003 7.025997,-7.786003s19.914001,-4.115997 22,-6.252998c0.459999,-0.472 0.806,-0.353996 -0.229996,-1.296997c-1.103004,-1.004005 -24.880005,-12.977005 -24.880005,-12.977005s-8.292995,-3.420998 -8.522999,-9.673996c-0.278,-7.544998 7.833004,-8.730003 7.833004,-8.730003l26.952995,-9.674c0,0 1.843002,-0.708 0.230003,-2.123997c-1.613998,-1.417004 -22.346001,-4.721001 -22.346001,-4.721001z" stroke-width="1.2159" stroke="#000000" fill="#FFFFFF"/>
         </g>
        </g>
        <g>
         <ellipse ry="0.899" rx="0.878" cy="39.042" cx="58.268"/>
         <path d="m58.268002,39.042"/>
        </g>
        <g>
         <path d="m59.091,46.021c-1.128998,-0.693001 -10.032001,-2.148998 -10.032001,-2.148998l-3.598999,0.014l-1.579998,-1.156002" stroke-width="1.2159" stroke="#000000" fill="none"/>
         <line y2="44.348" x2="43.655" y1="43.886" x1="45.348" stroke-width="1.2159" stroke="#000000" fill="none"/>
        </g>
        <path d="m81.759003,88.699997"/>
        <g>
         <path d="m92.136002,44.931c0,0 13.361,3.067001 8.522995,10.618c0,0 -5.066994,7.549999 3.917,2.359001c0,0 7.832001,-10.617001 -13.130997,-12.977001" fill="#FFFFFF"/>
        </g>
        <g>
         <path d="m90.292999,88.582001c0,0 13.361,3.067001 8.523003,10.617996c0,0 -5.068001,7.550003 3.917,2.359001c0,0 7.832001,-10.617996 -13.131004,-12.977997" fill="#FFFFFF"/>
        </g>
        <g>
         <path d="m88.278,122.735001c0,0 10.021004,2.301003 6.392998,7.962997c0,0 -3.800995,5.662994 2.937004,1.770004c0,0 5.875,-7.963005 -9.848,-9.733002" fill="#FFFFFF"/>
        </g>
        <path d="m74.733002,49.296001l0.691002,27.015995l12.900993,6.252007l0.460007,-30.555004c0.000999,0.000999 -9.099007,-2.240997 -14.052002,-2.712997z"/>
        <polygon points="75.655,88.464 76.577,112.648 86.712,117.839 88.095,94.953    "/>
        <path d="m85.560997,144.266006l1.152,-16.279999l-9.214996,-4.364998l1.266998,20.409996c0,0 0.240997,9.674011 3.695999,8.966003c0,-0.001007 2.409004,0.706985 3.099998,-8.731003z"/>
        <path d="m79.236,21.433001c0,0 2.995003,1.650999 7.372002,0l0,18.071001l-0.028,1.178997" stroke-width="0.0606" stroke="#FFFFFF" fill="none"/>
        <line y2="69.402" x2="85.837" y1="51.541" x1="86.322" stroke-width="0.0606" stroke="#FFFFFF" fill="none"/>
        <line y2="81.271" x2="85.615" y1="69.705" x1="85.89" stroke-width="0.0606" stroke="#FFFFFF" fill="none"/>
        <line y2="109.707" x2="85.189" y1="94.005" x1="85.313" stroke-width="0.0606" stroke="#FFFFFF" fill="none"/>
        <line y2="138.793" x2="84.049" y1="127.042" x1="84.528" stroke-width="0.0606" stroke="#FFFFFF" fill="none"/>
        <line y2="146.154" x2="84.073" y1="138.602" x1="84.253" stroke-width="0.0606" stroke="#FFFFFF" fill="none"/>
        <line y2="116.188" x2="84.995" y1="110.053" x1="85.226" stroke-width="0.0606" stroke="#FFFFFF" fill="none"/>
        <polyline points="85.226,21.433 85.226,39.504 85.198,40.684    " stroke-width="0.0606" stroke="#FFFFFF" fill="none"/>
        <line y2="69.402" x2="84.455" y1="51.541" x1="84.939" stroke-width="0.0606" stroke="#FFFFFF" fill="none"/>
        <line y2="81.271" x2="84.233" y1="69.705" x1="84.508" stroke-width="0.0606" stroke="#FFFFFF" fill="none"/>
        <line y2="109.707" x2="83.807" y1="94.005" x1="83.93" stroke-width="0.0606" stroke="#FFFFFF" fill="none"/>
        <line y2="138.793" x2="82.667" y1="127.042" x1="83.146" stroke-width="0.0606" stroke="#FFFFFF" fill="none"/>
        <line y2="146.154" x2="82.691" y1="138.602" x1="82.871" stroke-width="0.0606" stroke="#FFFFFF" fill="none"/>
        <line y2="116.188" x2="83.613" y1="110.053" x1="83.843" stroke-width="0.0606" stroke="#FFFFFF" fill="none"/>
        <g>
         <path d="m70.885002,66.343002c0,0 -10.021004,2.300995 -6.393005,7.962997c0,0 3.801003,5.663002 -2.936996,1.769997c0,0 -5.875,-7.962997 9.848,-9.732994" fill="#FFFFFF"/>
        </g>
        <g>
         <path d="m74.110001,105.275002c0,0 -10.021004,2.299995 -6.392998,7.962997c0,0 3.800995,5.662003 -2.937004,1.769005c0,0 -5.874001,-7.963005 9.848,-9.732002" fill="#FFFFFF"/>
        </g>
        <polygon points="56.045,38.051 61.279,37.587 61.099,38.515    "/>
       </g>
      </g>
      <path d="m72.082001,111.486l0,-47.643002l9.598,0c3.216003,0 7.084999,0.127003 9.949997,2.223003c3.417,2.541 3.969002,7.179001 3.969002,11.751999l0,21.153999c-0.048996,4.764 -1.206001,8.258003 -3.767998,10.292c-2.312004,1.904999 -5.125999,2.223 -7.839005,2.223l-11.909996,0l0,-0.000999zm8.844002,-8.575996c5.93,0.507996 5.979996,-2.541 5.828995,-8.894005l0,-15.562996c-0.049995,-5.590004 -1.506996,-5.908005 -5.828995,-6.035004l0,30.492004z" stroke-width="1.2753" stroke="#000000" fill="#FFFFFF"/>
     </g>
    </symbol>
   </defs>
   <clipPath id="XMLID_33_">
    <use id="svg_3" xlink:href="#XMLID_1_"/>
   </clipPath>
   <rect id="svg_4" height="35.684" width="15.846" fill="#FFFFFF" clip-path="url(#XMLID_33_)" y="234.331" x="267.176"/>
  </g>
  <g id="svg_5">
   <defs>
    <polyline points="308.499,78.451 322.073,80.844 279.638,321.547 266.063,319.15 308.499,78.451   " id="XMLID_3_"/>
   </defs>
   <clipPath id="XMLID_34_">
    <use id="svg_6" xlink:href="#XMLID_3_"/>
   </clipPath>
   <g id="svg_7" clip-path="url(#XMLID_34_)">
    <defs>
     <path d="m159.912994,201.462997c46.575012,34.697006 81.758011,46.492996 113.893005,40.593002c32.135986,-5.895996 43.343994,-20.908005 51.145996,-43.533997c7.79599,-22.623001 -3.806,-55.900009 -3.806,-55.900009l3.64798,1.539993c0.02002,0.054001 8.407013,20.434006 8.07901,43.782013c-0.328003,23.455002 -13.368988,56.591003 -48.77301,68.401001c-29.502991,9.839996 -60.631989,-2.016006 -84.553986,-14.339005c-23.979004,-12.356995 -40.692001,-27.126999 -40.738007,-27.166992l1.105011,-13.376007" id="XMLID_5_"/>
    </defs>
    <clipPath id="XMLID_35_">
     <use id="svg_8" xlink:href="#XMLID_5_"/>
    </clipPath>
    <polyline id="svg_9" points="268.327,319.539 266.063,319.141 308.509,78.443 310.771,78.842       " fill="#6D6F71" clip-path="url(#XMLID_35_)"/>
    <polyline id="svg_10" points="270.59,319.938 268.327,319.539 310.771,78.842 313.034,79.24   " fill="#808284" clip-path="url(#XMLID_35_)"/>
    <polyline id="svg_11" points="272.854,320.338 270.59,319.938 313.034,79.24 315.297,79.64   " fill="#939598" clip-path="url(#XMLID_35_)"/>
    <polyline id="svg_12" points="275.118,320.736 272.854,320.338 315.297,79.64 317.558,80.041       " fill="#A7A9AC" clip-path="url(#XMLID_35_)"/>
    <polyline id="svg_13" points="277.379,321.138 275.118,320.736 317.558,80.041 319.821,80.438       " fill="#BCBEC0" clip-path="url(#XMLID_35_)"/>
    <polyline id="svg_14" points="279.642,321.537 277.379,321.138 319.821,80.438 322.086,80.837       " fill="#D1D3D4" clip-path="url(#XMLID_35_)"/>
   </g>
  </g>
  <g id="svg_15">
   <defs>
    <polyline points="288.964,78.451 302.537,80.844 260.1,321.547 246.524,319.15 288.964,78.451   " id="XMLID_7_"/>
   </defs>
   <clipPath id="XMLID_36_">
    <use id="svg_16" xlink:href="#XMLID_7_"/>
   </clipPath>
   <g id="svg_17" clip-path="url(#XMLID_36_)">
    <defs>
     <path d="m159.912994,201.462997c46.575012,34.697006 81.758011,46.492996 113.893005,40.593002c32.135986,-5.895996 43.343994,-20.908005 51.145996,-43.533997c7.79599,-22.623001 -3.806,-55.900009 -3.806,-55.900009l3.64798,1.539993c0.02002,0.054001 8.407013,20.434006 8.07901,43.782013c-0.328003,23.455002 -13.368988,56.591003 -48.77301,68.401001c-29.502991,9.839996 -60.631989,-2.016006 -84.553986,-14.339005c-23.979004,-12.356995 -40.692001,-27.126999 -40.738007,-27.166992l1.105011,-13.376007" id="XMLID_9_"/>
    </defs>
    <clipPath id="XMLID_37_">
     <use id="svg_18" xlink:href="#XMLID_9_"/>
    </clipPath>
    <polyline id="svg_19" points="300.27,80.451 302.531,80.849 260.09,321.549 257.825,321.149   " fill="#6D6F71" clip-path="url(#XMLID_37_)"/>
    <polyline id="svg_20" points="298.006,80.053 300.27,80.451 257.825,321.149 255.562,320.751       " fill="#808284" clip-path="url(#XMLID_37_)"/>
    <polyline id="svg_21" points="295.738,79.654 298.006,80.053 255.562,320.751 253.299,320.35       " fill="#939598" clip-path="url(#XMLID_37_)"/>
    <polyline id="svg_22" points="293.479,79.256 295.738,79.654 253.299,320.35 251.037,319.95   " fill="#A7A9AC" clip-path="url(#XMLID_37_)"/>
    <polyline id="svg_23" points="291.215,78.854 293.479,79.256 251.037,319.95 248.773,319.552       " fill="#BCBEC0" clip-path="url(#XMLID_37_)"/>
    <polyline id="svg_24" points="288.952,78.456 291.215,78.854 248.773,319.552 246.511,319.153       " fill="#D1D3D4" clip-path="url(#XMLID_37_)"/>
   </g>
  </g>
  <g id="svg_25">
   <defs>
    <polyline points="208.387,15.168 221.962,17.562 179.522,258.263 165.949,255.872 208.387,15.168   " id="XMLID_11_"/>
   </defs>
   <clipPath id="XMLID_38_">
    <use id="svg_26" xlink:href="#XMLID_11_"/>
   </clipPath>
   <g id="svg_27" clip-path="url(#XMLID_38_)">
    <defs>
     <path d="m159.912994,201.462997c46.575012,34.697006 81.758011,46.492996 113.893005,40.593002c32.135986,-5.895996 43.343994,-20.908005 51.145996,-43.533997c7.79599,-22.623001 -3.806,-55.900009 -3.806,-55.900009l3.64798,1.539993c0.02002,0.054001 8.407013,20.434006 8.07901,43.782013c-0.328003,23.455002 -13.368988,56.591003 -48.77301,68.401001c-29.502991,9.839996 -60.631989,-2.016006 -84.553986,-14.339005c-23.979004,-12.356995 -40.692001,-27.126999 -40.738007,-27.166992l1.105011,-13.376007" id="XMLID_13_"/>
    </defs>
    <clipPath id="XMLID_39_">
     <use id="svg_28" xlink:href="#XMLID_13_"/>
    </clipPath>
    <polyline id="svg_29" points="168.217,256.275 165.956,255.876 208.399,15.178 210.66,15.577       " fill="#6D6F71" clip-path="url(#XMLID_39_)"/>
    <polyline id="svg_30" points="170.477,256.674 168.217,256.275 210.66,15.577 212.92,15.979   " fill="#808284" clip-path="url(#XMLID_39_)"/>
    <polyline id="svg_31" points="172.74,257.073 170.477,256.674 212.92,15.979 215.178,16.375   " fill="#939598" clip-path="url(#XMLID_39_)"/>
    <polyline id="svg_32" points="175,257.469 172.74,257.073 215.178,16.375 217.441,16.775   " fill="#A7A9AC" clip-path="url(#XMLID_39_)"/>
    <polyline id="svg_33" points="177.26,257.868 175,257.469 217.441,16.775 219.699,17.174   " fill="#BCBEC0" clip-path="url(#XMLID_39_)"/>
    <polyline id="svg_34" points="179.52,258.268 177.26,257.868 219.699,17.174 221.962,17.572   " fill="#D1D3D4" clip-path="url(#XMLID_39_)"/>
   </g>
  </g>
  <g id="svg_35">
   <defs>
    <polyline points="324.36,19.323 338.144,19.323 338.163,263.729 324.377,263.729 324.36,19.323   " id="XMLID_15_"/>
   </defs>
   <clipPath id="XMLID_40_">
    <use id="svg_36" xlink:href="#XMLID_15_"/>
   </clipPath>
   <g id="svg_37" clip-path="url(#XMLID_40_)">
    <defs>
     <path d="m159.912994,201.462997c46.575012,34.697006 81.758011,46.492996 113.893005,40.593002c32.135986,-5.895996 43.343994,-20.908005 51.145996,-43.533997c7.79599,-22.623001 -3.806,-55.900009 -3.806,-55.900009l3.64798,1.539993c0.02002,0.054001 8.407013,20.434006 8.07901,43.782013c-0.328003,23.455002 -13.368988,56.591003 -48.77301,68.401001c-29.502991,9.839996 -60.631989,-2.016006 -84.553986,-14.339005c-23.979004,-12.356995 -40.692001,-27.126999 -40.738007,-27.166992l1.105011,-13.376007" id="XMLID_17_"/>
    </defs>
    <clipPath id="XMLID_41_">
     <use id="svg_38" xlink:href="#XMLID_17_"/>
    </clipPath>
    <rect id="svg_39" height="244.409" width="2.297" fill="#939598" clip-path="url(#XMLID_41_)" y="19.305" x="331.258"/>
    <rect id="svg_40" height="244.409" width="2.299" fill="#A7A9AC" clip-path="url(#XMLID_41_)" y="19.305" x="328.957"/>
    <rect id="svg_41" height="244.409" width="2.297" fill="#BCBEC0" clip-path="url(#XMLID_41_)" y="19.305" x="326.66"/>
    <rect id="svg_42" height="244.409" width="2.297" fill="#D1D3D4" clip-path="url(#XMLID_41_)" y="19.305" x="324.363"/>
   </g>
  </g>
  <path id="svg_43" d="m159.912994,201.462997c46.575012,34.697006 81.758011,46.492996 113.893005,40.593002c32.135986,-5.895996 43.343994,-20.908005 51.145996,-43.533997c7.79599,-22.623001 -3.806,-55.900009 -3.806,-55.900009l3.64798,1.539993c0.02002,0.054001 8.407013,20.434006 8.07901,43.782013c-0.328003,23.455002 -13.368988,56.591003 -48.77301,68.401001c-29.502991,9.839996 -60.631989,-2.016006 -84.553986,-14.339005c-23.979004,-12.356995 -40.692001,-27.126999 -40.738007,-27.166992l1.105011,-13.376007z" stroke-miterlimit="3.864" stroke-width="1.629" stroke="#000000" fill="#ffffff"/>
  <circle id="svg_44" r="44.454" cy="285.597" cx="51.187"/>
  <circle id="svg_45" r="44.454" cy="285.597" cx="51.187" stroke-miterlimit="3.864" stroke-width="1.629" stroke="#000000" fill="none"/>
  <circle id="svg_46" r="40.898" cy="283.969" cx="51.188" fill="#FFFFFF"/>
  <circle id="svg_47" r="40.898" cy="283.969" cx="51.188" stroke-miterlimit="3.864" stroke-width="1.4978" stroke="#000000" fill="none"/>
  <g id="svg_48">
   <defs>
    <path d="m15.174,283.020996c0,-21.584991 17.498001,-39.085999 39.084999,-39.085999c21.588001,0 39.088001,17.501007 39.088001,39.085999c0,21.587006 -17.5,39.088013 -39.088001,39.088013c-21.586998,0 -39.084999,-17.501007 -39.084999,-39.088013" id="XMLID_19_"/>
   </defs>
   <clipPath id="XMLID_42_">
    <use id="svg_49" xlink:href="#XMLID_19_"/>
   </clipPath>
   <polyline id="svg_50" points="62.786,230.126 64.811,228.76 108.526,293.569 106.5,294.938  " fill="#E7E7E8" clip-path="url(#XMLID_42_)"/>
   <polyline id="svg_51" points="60.76,231.492 62.786,230.126 106.5,294.938 104.476,296.304  " fill="#E3E4E5" clip-path="url(#XMLID_42_)"/>
   <polyline id="svg_52" points="58.732,232.858 60.76,231.492 104.476,296.304 102.451,297.67  " fill="#E1E2E3" clip-path="url(#XMLID_42_)"/>
   <polyline id="svg_53" points="56.708,234.224 58.732,232.858 102.451,297.67 100.422,299.033  " fill="#DEDFE1" clip-path="url(#XMLID_42_)"/>
   <polyline id="svg_54" points="54.683,235.59 56.708,234.224 100.422,299.033 98.397,300.401  " fill="#DBDCDD" clip-path="url(#XMLID_42_)"/>
   <polyline id="svg_55" points="52.658,236.958 54.683,235.59 98.397,300.401 96.373,301.768  " fill="#D9DADB" clip-path="url(#XMLID_42_)"/>
   <polyline id="svg_56" points="50.633,238.322 52.658,236.958 96.373,301.768 94.348,303.134  " fill="#D6D7D9" clip-path="url(#XMLID_42_)"/>
   <polyline id="svg_57" points="48.608,239.688 50.633,238.322 94.348,303.134 92.323,304.5  " fill="#D4D5D6" clip-path="url(#XMLID_42_)"/>
   <polyline id="svg_58" points="46.583,241.054 48.608,239.688 92.323,304.5 90.298,305.865  " fill="#D0D2D3" clip-path="url(#XMLID_42_)"/>
   <polyline id="svg_59" points="44.557,242.422 46.583,241.054 90.298,305.865 88.272,307.231  " fill="#CECFD1" clip-path="url(#XMLID_42_)"/>
   <polyline id="svg_60" points="42.532,243.788 44.557,242.422 88.272,307.231 86.248,308.598  " fill="#CBCDCF" clip-path="url(#XMLID_42_)"/>
   <polyline id="svg_61" points="40.508,245.151 42.532,243.788 86.248,308.598 84.222,309.964  " fill="#C8CACB" clip-path="url(#XMLID_42_)"/>
   <polyline id="svg_62" points="38.479,246.518 40.508,245.151 84.222,309.964 82.197,311.332  " fill="#C5C7C9" clip-path="url(#XMLID_42_)"/>
   <polyline id="svg_63" points="36.455,247.886 38.479,246.518 82.197,311.332 80.173,312.695  " fill="#C3C5C7" clip-path="url(#XMLID_42_)"/>
   <polyline id="svg_64" points="34.43,249.251 36.455,247.886 80.173,312.695 78.145,314.062  " fill="#C0C1C3" clip-path="url(#XMLID_42_)"/>
   <polyline id="svg_65" points="32.404,250.618 34.43,249.251 78.145,314.062 76.119,315.428  " fill="#BDBFC1" clip-path="url(#XMLID_42_)"/>
   <polyline id="svg_66" points="30.379,251.983 32.404,250.618 76.119,315.428 74.094,316.796  " fill="#BBBCBF" clip-path="url(#XMLID_42_)"/>
   <polyline id="svg_67" points="28.354,253.35 30.379,251.983 74.094,316.796 72.069,318.161  " fill="#B8BABC" clip-path="url(#XMLID_42_)"/>
   <polyline id="svg_68" points="26.33,254.715 28.354,253.35 72.069,318.161 70.044,319.525  " fill="#B5B7B9" clip-path="url(#XMLID_42_)"/>
   <polyline id="svg_69" points="24.305,256.082 26.33,254.715 70.044,319.525 68.019,320.892  " fill="#B2B4B7" clip-path="url(#XMLID_42_)"/>
   <polyline id="svg_70" points="22.278,257.447 24.305,256.082 68.019,320.892 65.995,322.26  " fill="#B0B2B4" clip-path="url(#XMLID_42_)"/>
   <polyline id="svg_71" points="20.254,258.813 22.278,257.447 65.995,322.26 63.97,323.625  " fill="#ADAFB1" clip-path="url(#XMLID_42_)"/>
   <polyline id="svg_72" points="18.229,260.179 20.254,258.813 63.97,323.625 61.943,324.991  " fill="#AAACAF" clip-path="url(#XMLID_42_)"/>
   <polyline id="svg_73" points="16.201,261.545 18.229,260.179 61.943,324.991 59.919,326.357  " fill="#A8AAAC" clip-path="url(#XMLID_42_)"/>
   <polyline id="svg_74" points="14.176,262.911 16.201,261.545 59.919,326.357 57.894,327.724  " fill="#A5A7A9" clip-path="url(#XMLID_42_)"/>
   <polyline id="svg_75" points="12.151,264.277 14.176,262.911 57.894,327.724 55.867,329.089  " fill="#A2A4A7" clip-path="url(#XMLID_42_)"/>
   <polyline id="svg_76" points="10.126,265.646 12.151,264.277 55.867,329.089 53.84,330.455  " fill="#A0A2A5" clip-path="url(#XMLID_42_)"/>
   <polyline id="svg_77" points="8.101,267.009 10.126,265.646 53.84,330.455 51.816,331.821  " fill="#9DA0A2" clip-path="url(#XMLID_42_)"/>
   <polyline id="svg_78" points="6.076,268.375 8.101,267.009 51.816,331.821 49.791,333.189  " fill="#9A9D9F" clip-path="url(#XMLID_42_)"/>
   <polyline id="svg_79" points="4.051,269.741 6.076,268.375 49.791,333.189 47.766,334.553  " fill="#989A9D" clip-path="url(#XMLID_42_)"/>
   <polyline id="svg_80" points="2.026,271.11 4.051,269.741 47.766,334.553 45.741,335.919  " fill="#96989B" clip-path="url(#XMLID_42_)"/>
   <polyline id="svg_81" points="0,272.476 2.026,271.11 45.741,335.919 43.716,337.285  " fill="#939598" clip-path="url(#XMLID_42_)"/>
  </g>
  <circle id="svg_82" r="39.087" cy="283.021" cx="54.261" stroke-miterlimit="3.864" stroke-width="1.4978" stroke="#000000" fill="#ffffff"/>
  <circle id="svg_83" r="29.553" cy="278.403" cx="53.629" fill="#FFFFFF"/>
  <circle id="svg_84" r="29.553" cy="278.403" cx="53.629" stroke-miterlimit="3.864" stroke-width="1.629" stroke="#000000" fill="none"/>
  <g id="svg_85">
   <defs>
    <path d="m27.332001,278.454987c0,-15.083984 12.226997,-27.309998 27.309998,-27.309998c15.083,0 27.311005,12.226013 27.311005,27.309998c0,15.080994 -12.227005,27.30899 -27.311005,27.30899c-15.083,0.000031 -27.309998,-12.228973 -27.309998,-27.30899" id="XMLID_21_"/>
   </defs>
   <clipPath id="XMLID_43_">
    <use id="svg_86" xlink:href="#XMLID_21_"/>
   </clipPath>
   <polyline id="svg_87" points="41.242,312.85 38.923,313.742 19.342,262.737 21.662,261.846  " fill="#939598" clip-path="url(#XMLID_43_)"/>
   <polyline id="svg_88" points="43.56,311.963 41.242,312.85 21.662,261.846 23.979,260.956  " fill="#989A9D" clip-path="url(#XMLID_43_)"/>
   <polyline id="svg_89" points="45.879,311.07 43.56,311.963 23.979,260.956 26.299,260.066  " fill="#9D9FA1" clip-path="url(#XMLID_43_)"/>
   <polyline id="svg_90" points="48.197,310.184 45.879,311.07 26.299,260.066 28.617,259.174  " fill="#A1A3A6" clip-path="url(#XMLID_43_)"/>
   <polyline id="svg_91" points="50.517,309.291 48.197,310.184 28.617,259.174 30.936,258.284  " fill="#A6A8AB" clip-path="url(#XMLID_43_)"/>
   <polyline id="svg_92" points="52.833,308.401 50.517,309.291 30.936,258.284 33.255,257.397  " fill="#ABADB0" clip-path="url(#XMLID_43_)"/>
   <polyline id="svg_93" points="55.154,307.513 52.833,308.401 33.255,257.397 35.573,256.504  " fill="#B0B2B4" clip-path="url(#XMLID_43_)"/>
   <polyline id="svg_94" points="57.471,306.623 55.154,307.513 35.573,256.504 37.893,255.613  " fill="#B5B7B9" clip-path="url(#XMLID_43_)"/>
   <polyline id="svg_95" points="59.791,305.73 57.471,306.623 37.893,255.613 40.21,254.725  " fill="#BABCBE" clip-path="url(#XMLID_43_)"/>
   <polyline id="svg_96" points="62.108,304.843 59.791,305.73 40.21,254.725 42.53,253.833  " fill="#BFC1C3" clip-path="url(#XMLID_43_)"/>
   <polyline id="svg_97" points="64.426,303.951 62.108,304.843 42.53,253.833 44.848,252.946  " fill="#C4C5C8" clip-path="url(#XMLID_43_)"/>
   <polyline id="svg_98" points="66.746,303.061 64.426,303.951 44.848,252.946 47.167,252.054  " fill="#C9CACC" clip-path="url(#XMLID_43_)"/>
   <polyline id="svg_99" points="69.063,302.171 66.746,303.061 47.167,252.054 49.484,251.164  " fill="#CECFD1" clip-path="url(#XMLID_43_)"/>
   <polyline id="svg_100" points="71.383,301.281 69.063,302.171 49.484,251.164 51.804,250.274  " fill="#D4D5D6" clip-path="url(#XMLID_43_)"/>
   <polyline id="svg_101" points="73.701,300.392 71.383,301.281 51.804,250.274 54.121,249.385  " fill="#D8D9DA" clip-path="url(#XMLID_43_)"/>
   <polyline id="svg_102" points="76.02,299.502 73.701,300.392 54.121,249.385 56.441,248.493  " fill="#DDDFE0" clip-path="url(#XMLID_43_)"/>
   <polyline id="svg_103" points="78.337,298.61 76.02,299.502 56.441,248.493 58.758,247.605  " fill="#E2E3E4" clip-path="url(#XMLID_43_)"/>
   <polyline id="svg_104" points="80.657,297.723 78.337,298.61 58.758,247.605 61.078,246.713  " fill="#E7E8E9" clip-path="url(#XMLID_43_)"/>
   <polyline id="svg_105" points="82.974,296.831 80.657,297.723 61.078,246.713 63.398,245.826  " fill="#EDEDEE" clip-path="url(#XMLID_43_)"/>
   <polyline id="svg_106" points="85.294,295.941 82.974,296.831 63.398,245.826 65.714,244.934  " fill="#F2F2F3" clip-path="url(#XMLID_43_)"/>
   <polyline id="svg_107" points="87.614,295.052 85.294,295.941 65.714,244.934 68.033,244.044  " fill="#F7F7F8" clip-path="url(#XMLID_43_)"/>
   <polyline id="svg_108" points="89.931,294.162 87.614,295.052 68.033,244.044 70.351,243.155  " fill="#FFFFFF" clip-path="url(#XMLID_43_)"/>
  </g>
  <circle id="svg_109" r="27.31" cy="278.455" cx="54.642" stroke-miterlimit="3.864" stroke-width="1.629" stroke="#000000" fill="none"/>
  <g id="svg_110">
   <defs>
    <path d="m29.986,278.403015c0,-13.057983 10.585999,-23.641998 23.641998,-23.641998c13.058998,0 23.643005,10.583984 23.643005,23.641998c0,13.05899 -10.584007,23.64502 -23.643005,23.64502c-13.056,-0.000031 -23.641998,-10.586029 -23.641998,-23.64502" id="XMLID_23_"/>
   </defs>
   <clipPath id="XMLID_44_">
    <use id="svg_111" xlink:href="#XMLID_23_"/>
   </clipPath>
   <path id="svg_112" d="m79.287003,278.39801l0,0c0,14.165009 -11.498001,25.65799 -25.659004,25.65799c-14.161999,0 -25.656998,-11.492981 -25.656998,-25.65799c0,-14.161987 11.494999,-25.656006 25.656998,-25.656006c14.161003,0.000992 25.659004,11.493988 25.659004,25.656006m2.723999,-0.096008c0,-15.651001 -12.704002,-28.356003 -28.357002,-28.356003c-15.653999,0 -28.358999,12.705002 -28.358999,28.356003c0,15.653992 12.705,28.359009 28.358999,28.359009c15.653,0 28.357002,-12.705017 28.357002,-28.359009" fill="#E7E7E8" clip-path="url(#XMLID_44_)"/>
   <path id="svg_113" d="m76.584999,278.39801l0,0c0,12.674011 -10.285995,22.958008 -22.957001,22.958008c-12.672997,0 -22.956999,-10.283997 -22.956999,-22.958008c0,-12.670013 10.282999,-22.955994 22.956999,-22.955994c12.671005,0.000977 22.957001,10.28598 22.957001,22.955994m2.725998,-0.096008c0,-14.161987 -11.494995,-25.654999 -25.656998,-25.654999c-14.163998,0 -25.658998,11.493011 -25.658998,25.654999c0,14.165009 11.495001,25.65799 25.658998,25.65799c14.162003,0 25.656998,-11.492981 25.656998,-25.65799" fill="#D9DBDC" clip-path="url(#XMLID_44_)"/>
   <path id="svg_114" d="m73.884003,278.39801l0,0c0,11.182007 -9.076004,20.257996 -20.256004,20.257996c-11.182999,0 -20.258999,-9.075989 -20.258999,-20.257996s9.076,-20.253998 20.258999,-20.253998c11.18,0 20.256004,9.072998 20.256004,20.253998m2.725998,0.053986c0,-12.673004 -10.285004,-22.957993 -22.957001,-22.957993c-12.673,0 -22.958,10.284988 -22.958,22.957993c0,12.673004 10.285,22.955017 22.958,22.955017c12.672997,0 22.957001,-10.282013 22.957001,-22.955017" fill="#CDCED0" clip-path="url(#XMLID_44_)"/>
   <path id="svg_115" d="m71.182999,278.39801l0,0c0,9.690002 -7.864998,17.558014 -17.555,17.558014c-9.691998,0 -17.556999,-7.867004 -17.556999,-17.558014c0,-9.688995 7.865002,-17.553986 17.556999,-17.553986c9.690002,-0.000031 17.555,7.86499 17.555,17.553986m2.724998,0.053986c0,-11.18399 -9.075996,-20.257996 -20.253998,-20.257996c-11.182999,0 -20.257,9.074005 -20.257,20.257996c0,11.179016 9.074001,20.255005 20.257,20.255005c11.179001,0 20.253998,-9.075989 20.253998,-20.255005" fill="#C0C2C4" clip-path="url(#XMLID_44_)"/>
   <path id="svg_116" d="m68.482002,278.39801l0,0c0,8.200989 -6.655003,14.854004 -14.854004,14.854004c-8.202,0 -14.855999,-6.653015 -14.855999,-14.854004c0,-8.197998 6.653999,-14.854004 14.855999,-14.854004c8.199001,0.001007 14.854004,6.656982 14.854004,14.854004m2.725998,0.053986c0,-9.690002 -7.866001,-17.554993 -17.554001,-17.554993c-9.689999,0 -17.556,7.863983 -17.556,17.554993c0,9.688995 7.866001,17.554993 17.556,17.554993c9.688,0 17.554001,-7.86499 17.554001,-17.554993" fill="#B3B5B7" clip-path="url(#XMLID_44_)"/>
   <path id="svg_117" d="m65.780998,278.39801l0,0c0,6.709991 -5.445999,12.153992 -12.153,12.153992c-6.708,0 -12.155998,-5.444 -12.155998,-12.153992c0,-6.708008 5.446999,-12.149994 12.155998,-12.149994c6.707001,-0.000031 12.153,5.441986 12.153,12.149994m2.578003,0.053986c0,-8.199982 -6.655003,-14.854004 -14.854,-14.854004c-8.199001,0 -14.854,6.654022 -14.854,14.854004c0,8.197998 6.654999,14.854004 14.854,14.854004c8.198997,0 14.854,-6.656006 14.854,-14.854004" fill="#A7A9AC" clip-path="url(#XMLID_44_)"/>
   <path id="svg_118" d="m63.080002,278.39801l0,0c0,5.220001 -4.235001,9.453003 -9.452003,9.453003c-5.217999,0 -9.453999,-4.233002 -9.453999,-9.453003c0,-5.21701 4.236,-9.450012 9.453999,-9.450012c5.216003,0 9.452003,4.234009 9.452003,9.450012m2.725998,0.053986c0,-6.708984 -5.443001,-12.153992 -12.152,-12.153992c-6.709,0 -12.153,5.444 -12.153,12.153992c0,6.709015 5.444,12.153015 12.153,12.153015c6.708,0 12.152,-5.444 12.152,-12.153015" fill="#9B9DA0" clip-path="url(#XMLID_44_)"/>
   <path id="svg_119" d="m60.379002,278.39801l0,0c0,3.726013 -3.025002,6.752991 -6.751003,6.752991c-3.727997,0 -6.752998,-3.026978 -6.752998,-6.752991c0,-3.727997 3.026001,-6.75 6.752998,-6.75c3.726002,0.000977 6.751003,3.02298 6.751003,6.75m2.725998,0.053986c0,-5.220001 -4.232998,-9.453003 -9.452,-9.453003c-5.220001,0 -9.452999,4.233002 -9.452999,9.453003c0,5.21701 4.232998,9.450012 9.452999,9.450012c5.219002,0 9.452,-4.233002 9.452,-9.450012" fill="#8F9194" clip-path="url(#XMLID_44_)"/>
   <path id="svg_120" d="m57.679001,278.39801l0,0c0,2.237 -1.815002,4.052002 -4.051003,4.052002c-2.237,0 -4.051998,-1.815002 -4.051998,-4.052002c0,-2.233002 1.813999,-4.050995 4.051998,-4.050995c2.235001,-0.000031 4.051003,1.817993 4.051003,4.050995m2.724998,0.053986c0,-3.729004 -3.024998,-6.752991 -6.75,-6.752991c-3.729,0 -6.751999,3.023987 -6.751999,6.752991c0,3.725006 3.021999,6.75 6.751999,6.75c3.725002,0 6.75,-3.024994 6.75,-6.75" fill="#848688" clip-path="url(#XMLID_44_)"/>
   <path id="svg_121" d="m54.977001,278.39801l0,0c0,0.747986 -0.604,1.348999 -1.349003,1.348999c-0.746998,0 -1.351997,-0.60199 -1.351997,-1.348999c0,-0.743988 0.605,-1.351013 1.351997,-1.351013c0.746002,0 1.349003,0.606995 1.349003,1.351013m2.725998,-0.096008c0,-2.234009 -1.813999,-4.049011 -4.049,-4.049011c-2.237,0 -4.050999,1.815002 -4.050999,4.049011c0,2.237 1.813999,4.052002 4.050999,4.052002c2.234001,0 4.049,-1.815002 4.049,-4.052002" fill="#797A7D" clip-path="url(#XMLID_44_)"/>
   <path id="svg_122" d="m55.001999,278.302002c0,-0.743988 -0.604,-1.351013 -1.348999,-1.351013c-0.747002,0 -1.351002,0.607025 -1.351002,1.351013c0,0.747009 0.604,1.35199 1.351002,1.35199c0.744999,0 1.348999,-0.60498 1.348999,-1.35199" fill="#6D6F71" clip-path="url(#XMLID_44_)"/>
  </g>
  <circle id="svg_123" r="23.643" cy="278.403" cx="53.628" stroke-miterlimit="3.864" stroke-width="1.629" stroke="#000000" fill="#ffffff"/>
  <g id="svg_124">
   <defs>
    <polyline points="53.635,306.743 44,333.923 31.726,329.567 41.361,302.392 53.635,306.743   " id="XMLID_25_"/>
   </defs>
   <clipPath id="XMLID_45_">
    <use id="svg_125" xlink:href="#XMLID_25_"/>
   </clipPath>
   <polyline id="svg_126" points="51.529,305.486 53.805,306.183 45.214,334.282 42.937,333.586  " clip-path="url(#XMLID_45_)"/>
   <polyline id="svg_127" points="49.253,304.789 51.529,305.486 42.937,333.586 40.661,332.893  " fill="#4F5051" clip-path="url(#XMLID_45_)"/>
   <polyline id="svg_128" points="46.979,304.094 49.253,304.789 40.661,332.893 38.386,332.196  " fill="#717375" clip-path="url(#XMLID_45_)"/>
   <polyline id="svg_129" points="44.701,303.399 46.979,304.094 38.386,332.196 36.109,331.5  " fill="#8F9194" clip-path="url(#XMLID_45_)"/>
   <polyline id="svg_130" points="42.426,302.703 44.701,303.399 36.109,331.5 33.835,330.804  " fill="#AFB1B4" clip-path="url(#XMLID_45_)"/>
   <polyline id="svg_131" points="40.151,302.007 42.426,302.703 33.835,330.804 31.56,330.109  " fill="#D1D3D4" clip-path="url(#XMLID_45_)"/>
  </g>
  <rect id="svg_132" height="13.024" width="28.837" stroke-miterlimit="3.864" stroke-width="1.629" stroke="#000000" fill="none" transform="matrix(0.3341 -0.9425 0.9425 0.3341 -271.4517 252.083)" y="311.643" x="28.262"/>
  <path id="svg_133" d="m145.210007,22.162001c0,0 10.139999,0.640999 12.064011,14.307001c1.922989,13.665997 -0.962006,13.343998 -0.962006,13.343998s-11.425995,6.264999 -29.575005,8.856998c-4.487,0.642002 -8.855995,-8.656998 -10.136993,-12.382999c-1.283005,-3.725998 -3.088005,-9.176998 1.601997,-12.062c4.687988,-2.885998 15.587982,-8.856998 27.007996,-12.062998" fill="#FFFFFF"/>
  <g id="svg_134">
   <defs>
    <path d="m145.210007,22.162001c0,0 10.139999,0.640999 12.064011,14.307001c1.922989,13.665997 -0.962006,13.343998 -0.962006,13.343998s-11.425995,6.264999 -29.575005,8.856998c-4.487,0.642002 -8.855995,-8.656998 -10.136993,-12.382999c-1.283005,-3.725998 -3.088005,-9.176998 1.601997,-12.062c4.687988,-2.885998 15.587982,-8.856998 27.007996,-12.062998" id="XMLID_27_"/>
   </defs>
   <clipPath id="XMLID_46_">
    <use id="svg_135" xlink:href="#XMLID_27_"/>
   </clipPath>
   <path id="svg_136" d="m142.007004,23.791c0,0 10.084991,0.642 12.009003,14.307999c1.923996,13.662003 -0.960007,13.342003 -0.960007,13.342003" stroke-miterlimit="3.864" stroke-width="1.629" stroke="#000000" fill="none" clip-path="url(#XMLID_46_)"/>
  </g>
  <path id="svg_137" d="m145.210007,22.162001c0,0 10.139999,0.640999 12.064011,14.307001c1.922989,13.665997 -0.962006,13.343998 -0.962006,13.343998s-11.425995,6.264999 -29.575005,8.856998c-4.487,0.642002 -8.855995,-8.656998 -10.136993,-12.382999c-1.283005,-3.725998 -3.088005,-9.176998 1.601997,-12.062c4.687988,-2.885998 15.587982,-8.856998 27.007996,-12.062998z" stroke-miterlimit="3.864" stroke-width="1.629" stroke="#000000" fill="none"/>
  <path id="svg_138" d="m320.924988,135.968002c0.020996,0.054001 8.43399,20.43399 8.104004,43.781998c-0.328003,23.453995 -9.523987,50.132004 -44.929016,61.944c-29.502991,9.839005 -61.039978,-0.279999 -84.962982,-12.604996c-23.979004,-12.353012 -40.693008,-27.122009 -40.736008,-27.162003l2.218002,-2.425995c0,0 4.104004,3.625 11.152008,8.768997c29.852997,21.791 73.519989,42.923996 111.259003,30.334991c42.787994,-14.272995 48.169983,-52.530991 38.862,-88.679001c-2.003998,-7.780991 -4.046021,-12.729996 -4.046021,-12.729996l3.07901,-1.227997"/>
  <path id="svg_139" d="m114.676003,41.278999c2.124001,0 -26.368004,8.855999 -35.868004,34.264c-7.836998,20.966003 25.574005,91.266998 116.100998,186.281006l7.729004,-12.161011c-90.527,-95.016998 -122.548004,-154.164993 -112.407997,-174.120995c10.137993,-19.958 31.697998,-23.166 29.574997,-23.166c0,0 2.002998,-3.646 0.841003,-7.049999c-1.162003,-3.406002 -5.970001,-4.047001 -5.970001,-4.047001" fill="#D1D3D4"/>
  <g id="svg_140">
   <defs>
    <path d="m114.676003,41.278999c2.124001,0 -26.368004,8.855999 -35.868004,34.264c-7.836998,20.966003 25.574005,91.266998 116.100998,186.281006l7.729004,-12.161011c-90.527,-95.016998 -122.548004,-154.164993 -112.407997,-174.120995c10.137993,-19.958 31.697998,-23.166 29.574997,-23.166c0,0 2.002998,-3.646 0.841003,-7.049999c-1.162003,-3.406002 -5.970001,-4.047001 -5.970001,-4.047001" id="XMLID_29_"/>
   </defs>
   <clipPath id="XMLID_47_">
    <use id="svg_141" xlink:href="#XMLID_29_"/>
   </clipPath>
   <path id="svg_142" d="m98.431,130.705002c0,0 37.343002,68.542999 95.686005,124.028l2.821991,-3.988998c0,-0.001007 -52.658997,-46.977997 -98.507996,-120.039001" fill="#FFFFFF" clip-path="url(#XMLID_47_)"/>
  </g>
  <path id="svg_143" d="m114.676003,41.278999c2.124001,0 -26.368004,8.855999 -35.868004,34.264c-7.836998,20.966003 25.574005,91.266998 116.100998,186.281006l7.729004,-12.161011c-90.527,-95.016998 -122.548004,-154.164993 -112.407997,-174.120995c10.137993,-19.958 31.697998,-23.166 29.574997,-23.166c0,0 2.002998,-3.646 0.841003,-7.049999c-1.162003,-3.406002 -5.970001,-4.047001 -5.970001,-4.047001z" stroke-miterlimit="3.864" stroke-width="1.629" stroke="#000000" fill="#ffffff"/>
  <path id="svg_144" d="m48.084999,335.315002c-0.341999,1.036011 -15.839001,48.519012 -15.839001,64.938995c0,24.125 10.895,58.587006 35.777004,73.440002c43.027,25.688019 67.275002,-62.992981 163.643013,18.14502c14.012985,11.79599 32.646973,29.853973 49.233002,37.337982c28.85199,13.014038 65.158997,0.497986 75.951996,-18.934998c22.046997,-39.690002 12.320007,-73.464996 6.729004,-87.722992c-4.895996,-12.492004 -39.118011,-76.369995 -50.593994,-97.69101c-21.963013,6.001007 -49.863007,-1.143982 -80.407013,-23.372986c-16.091995,-11.716003 -31.817993,-25.838013 -44.839005,-40.979004c0,0 2.746002,-8.32901 6.940002,-11.428009c3.414001,-2.523987 10.326004,-3.452988 10.326004,-3.452988c3.807999,4.418991 69.505005,77.138992 107.972992,54.766983c39.781006,-23.134979 21.619995,-109.229996 20.674011,-113.290985c0,0 6.276001,-5.027008 11.10199,-5.96701c4.261993,-0.828995 11.101013,0.810013 11.101013,0.810013s5.971985,25.634995 5.520996,54.998993c-0.562012,36.542007 -10.990997,62.934006 -28.199005,77.339981c4.622009,8.588013 12.794006,23.813019 21.296997,39.894012c29.644012,56.040009 58.903015,101.26001 22.302002,167.160004c-17.513,31.530029 -67.501984,45.674011 -105.251007,28.643982c-41.299988,-18.634949 -79.914993,-83.543976 -128.542984,-67.949982c-28.80201,9.238007 -54.94001,30.188995 -86.640007,11.261993c-34.733009,-20.730988 -46.88801,-65.037994 -46.88801,-93.007996c0,-17.924988 10.997,-53.924988 16.985001,-72.080017c0,0 7.927999,-0.971985 12.518,0.71402c4.085999,1.498993 9.126999,6.425995 9.126999,6.425995z"/>
  <path id="svg_145" d="m48.084999,335.315002c-0.341999,1.036011 -15.839001,48.519012 -15.839001,64.938995c0,24.125 10.895,58.587006 35.777004,73.440002c43.027,25.688019 67.275002,-62.992981 163.643013,18.14502c14.012985,11.79599 32.646973,29.853973 49.233002,37.337982c28.85199,13.014038 65.158997,0.497986 75.951996,-18.934998c22.046997,-39.690002 12.320007,-73.464996 6.729004,-87.722992c-4.895996,-12.492004 -39.118011,-76.369995 -50.593994,-97.69101c-21.963013,6.001007 -49.863007,-1.143982 -80.407013,-23.372986c-16.091995,-11.716003 -31.817993,-25.838013 -44.839005,-40.979004c0,0 2.746002,-8.32901 6.940002,-11.428009c3.414001,-2.523987 10.326004,-3.452988 10.326004,-3.452988c3.807999,4.418991 69.505005,77.138992 107.972992,54.766983c39.781006,-23.134979 21.619995,-109.229996 20.674011,-113.290985c0,0 6.276001,-5.027008 11.10199,-5.96701c4.261993,-0.828995 11.101013,0.810013 11.101013,0.810013s5.971985,25.634995 5.520996,54.998993c-0.562012,36.542007 -10.990997,62.934006 -28.199005,77.339981c4.622009,8.588013 12.794006,23.813019 21.296997,39.894012c29.644012,56.040009 58.903015,101.26001 22.302002,167.160004c-17.513,31.530029 -67.501984,45.674011 -105.251007,28.643982c-41.299988,-18.634949 -79.914993,-83.543976 -128.542984,-67.949982c-28.80201,9.238007 -54.94001,30.188995 -86.640007,11.261993c-34.733009,-20.730988 -46.88801,-65.037994 -46.88801,-93.007996c0,-17.924988 10.997,-53.924988 16.985001,-72.080017c0,0 7.927999,-0.971985 12.518,0.71402c4.085999,1.498993 9.126999,6.425995 9.126999,6.425995z" stroke-miterlimit="3.864" stroke-width="1.629" stroke="#000000" fill="#ffffff"/>
  <path id="svg_146" d="m46.900002,476.701996c0,0 7.272999,12.356995 26.612999,16.414001c10.764,2.257996 24.352997,1.130005 24.352997,1.130005s-16.959999,-2.067993 -27.177994,-5.649017c-9.789005,-3.431 -23.788002,-11.894989 -23.788002,-11.894989" fill="#FFFFFF"/>
  <path id="svg_147" d="m361.166992,524.247986c18.67099,-16.414001 20.402008,-45.285004 20.402008,-45.285004s7.871979,24.354004 -14.753021,48.141022c-22.623993,23.789001 -47.543976,15.282959 -47.543976,15.282959s21.709991,-0.392944 41.894989,-18.138977" fill="#FFFFFF"/>
  <path id="svg_148" d="m258.104004,309.648987c0,0 19.269989,14.154999 48.705994,10.768005c0,0 -1.690979,-3.355011 -15.277985,-3.955017c-13.589996,-0.597992 -19.839996,-4.551971 -22.661011,-5.681c-2.822998,-1.131989 -10.766998,-1.131989 -10.766998,-1.131989" fill="#FFFFFF"/>
  <path id="svg_149" d="m147.334,200.330002l19.115997,23.604004c0,0 1.923004,-9.990005 12.102005,-3.20401l-19.199997,-21.837997c0,0 -7.416,-6.703003 -12.018005,1.438004z" fill="#BCBEC0"/>
  <path id="svg_150" d="m147.334,200.330002l19.115997,23.604004c0,0 1.923004,-9.990005 12.102005,-3.20401l-19.199997,-21.837997c0,0 -7.416,-6.703003 -12.018005,1.438004z" stroke-miterlimit="3.864" stroke-width="1.629" stroke="#000000" fill="#ffffff"/>
  <path id="svg_151" d="m352.354004,185.979004l-13.067017,5.172989c-42.276978,-143.582993 -87.510986,-175.359993 -94.201981,-178.225993c-6.696991,-2.87 -46.983002,6.246001 -46.983002,6.246001l-6.218994,-11.941001c0,0 32.714996,-7.286 41.914001,-6.33c9.199005,0.956 16.848999,0 25.093002,9.2c8.243988,9.198999 43.96701,37.709002 77.185974,127.372007c8.383026,22.622986 13.904022,39.273987 16.278015,48.505997z" fill="#D1D3D4"/>
  <path id="svg_152" d="m352.354004,185.979004l-13.067017,5.172989c-42.276978,-143.582993 -87.510986,-175.359993 -94.201981,-178.225993c-6.696991,-2.87 -46.983002,6.246001 -46.983002,6.246001l-6.218994,-11.941001c0,0 32.714996,-7.286 41.914001,-6.33c9.199005,0.956 16.848999,0 25.093002,9.2c8.243988,9.198999 43.96701,37.709002 77.185974,127.372007c8.383026,22.622986 13.904022,39.273987 16.278015,48.505997z" stroke-miterlimit="3.864" stroke-width="1.629" stroke="#000000" fill="#ffffff"/>
  <path id="svg_153" d="m331.190002,171.720993c2.526001,-18.468002 11.898987,-19.479996 11.898987,-19.479996l-9.653992,-26.608009c0,0 -14.147003,-8.812996 -14.988007,12.18l12.743011,33.908005z" fill="#BCBEC0"/>
  <path id="svg_154" d="m331.190002,171.720993c2.526001,-18.468002 11.898987,-19.479996 11.898987,-19.479996l-9.653992,-26.608009c0,0 -14.147003,-8.812996 -14.988007,12.18l12.743011,33.908005z" stroke-miterlimit="3.864" stroke-width="1.629" stroke="#000000" fill="#ffffff"/>
  <path id="svg_155" d="m253.623001,16.472c0,0 17.383987,10.288 29.403,30.016998c12.016998,19.732002 25.376007,47.791 25.376007,47.791s-26.082001,-45.614998 -34.713013,-57.125999c-5.029999,-6.705999 -20.065994,-20.681999 -20.065994,-20.681999" fill="#FFFFFF"/>
  <path id="svg_156" d="m203.598007,25.688999c-2.886002,3.848001 -20.595993,14.949001 -27.330994,16.549999c-6.731003,1.604 -9.817001,-2.564999 -11.742996,-6.09c-1.923004,-3.528 -5.017014,-16.769999 2.246994,-21.238998c13.022995,-8.016 27.649994,-10.581 27.649994,-10.581s12.700989,3.327 9.177002,21.359999" fill="#FFFFFF"/>
  <g id="svg_157">
   <defs>
    <path d="m203.598007,25.688999c-2.886002,3.848001 -20.595993,14.949001 -27.330994,16.549999c-6.731003,1.604 -9.817001,-2.564999 -11.742996,-6.09c-1.923004,-3.528 -5.017014,-16.769999 2.246994,-21.238998c13.022995,-8.016 27.649994,-10.581 27.649994,-10.581s12.700989,3.327 9.177002,21.359999" id="XMLID_31_"/>
   </defs>
   <clipPath id="XMLID_48_">
    <use id="svg_158" xlink:href="#XMLID_31_"/>
   </clipPath>
   <ellipse id="svg_159" ry="14.568" rx="10.039" cy="28.196" cx="171.039" stroke-miterlimit="3.864" stroke-width="1.629" stroke="#000000" fill="none" clip-path="url(#XMLID_48_)"/>
  </g>
  <path id="svg_160" d="m203.598007,25.688999c-2.886002,3.848001 -20.595993,14.949001 -27.330994,16.549999c-6.731003,1.604 -9.817001,-2.564999 -11.742996,-6.09c-1.923004,-3.528 -5.017014,-16.769999 2.246994,-21.238998c13.022995,-8.016 27.649994,-10.581 27.649994,-10.581s12.700989,3.327 9.177002,21.359999z" stroke-miterlimit="3.864" stroke-width="1.629" stroke="#000000" fill="none"/>
  <path id="svg_161" d="m169.013,28.195999c0,-2.979 1.266998,-5.393 2.828003,-5.393c1.55899,0 2.824997,2.414 2.824997,5.393c0,2.975 -1.266006,5.389 -2.824997,5.389c-1.561996,-0.000999 -2.828003,-2.414999 -2.828003,-5.389z"/>
  <path id="svg_162" d="m169.013,28.195999c0,-2.979 1.266998,-5.393 2.828003,-5.393c1.55899,0 2.824997,2.414 2.824997,5.393c0,2.975 -1.266006,5.389 -2.824997,5.389c-1.561996,-0.000999 -2.828003,-2.414999 -2.828003,-5.389z" stroke-miterlimit="3.864" stroke-width="1.629" stroke="#000000" fill="none"/>
  <polyline transform="rotate(173.991 86.332 371.945)" id="svg_164" points="86.332 371.945 86.332 371.945" stroke-linecap="round" stroke-linejoin="null" stroke-dasharray="null" stroke-width="1.629" stroke="#000000" fill="none"/>
  <use x="52.522882" y="-4.875846" transform="matrix(0.323668 0 0 0.410185 181.577 308.301)" xlink:href="#svg_166" id="svg_167"/>
  <ellipse id="svg_168" cy="366.945007" cx="49.332001" stroke-linecap="null" stroke-linejoin="null" stroke-dasharray="null" stroke-width="null" stroke="#000000" fill="#000000"/>
  <ellipse id="svg_173" cy="379.945007" cx="79.332001" stroke-linecap="null" stroke-linejoin="null" stroke-dasharray="null" stroke-width="null" stroke="#000000" fill="#ffffff"/>
  <text style="cursor: move; " transform="matrix(3.37088 0 0 3.72778 -355.593 -1074.07)" font-weight="bold" xml:space="preserve" text-anchor="middle" font-family="Verdana" font-size="24" id="svg_186" y="405" x="144.660004" stroke-linecap="null" stroke-linejoin="null" stroke-dasharray="null" stroke-width="0" stroke="null" fill="#000000">Dr.</text>
 </g>
</svg>